<?xml version="1.0" encoding="utf-8"?>
<!-- Generator: Adobe Illustrator 24.2.3, SVG Export Plug-In . SVG Version: 6.00 Build 0)  -->
<svg version="1.1" xmlns="http://www.w3.org/2000/svg" xmlns:xlink="http://www.w3.org/1999/xlink" x="0px" y="0px"
	 viewBox="0 0 1125 2436" style="enable-background:new 0 0 1125 2436;" xml:space="preserve">
<style type="text/css">
	.st0{opacity:0.42;fill:#150800;}
	.st1{fill:#FFFFFF;stroke:#000000;stroke-width:3;stroke-miterlimit:10;}
	.st2{fill:#DFDFDF;stroke:#000000;stroke-width:3;stroke-miterlimit:10;}
	.st3{fill:#F5FF9F;stroke:#000000;stroke-width:3;stroke-miterlimit:10;}
	.st4{fill:#552B00;stroke:#000000;stroke-width:3;stroke-miterlimit:10;}
	.st5{fill:#FFFFFF;stroke:#000000;stroke-width:2;stroke-miterlimit:10;}
	.st6{fill:#FFAAB8;stroke:#000000;stroke-width:3;stroke-miterlimit:10;}
	.st7{fill:#6A4400;stroke:#000000;stroke-width:3;stroke-miterlimit:10;}
	.st8{font-family:'Ambit-Bold';}
	.st9{font-size:72px;}
	.st10{letter-spacing:-3;}
	.st11{fill:#94FFE5;}
	.st12{fill:#110AFF;}
	.st13{fill:#07001F;}
	.st14{fill:#F3FFC9;stroke:#000000;stroke-width:2;stroke-miterlimit:10;}
	.st15{fill:#F3FFC9;stroke:#000000;stroke-miterlimit:10;}
</style>
<g id="body">
	
		<ellipse transform="matrix(0.0887 -0.9961 0.9961 0.0887 -978.5651 2166.3259)" class="st0" cx="694.61" cy="1617.95" rx="48.13" ry="285"/>
	<rect x="505.5" y="1119.5" class="st1" width="461" height="316"/>
	<path class="st2" d="M401.89,1295.78c-0.26,4.52-1.65,7.83-3.59,10.27C399.44,1295.63,402.31,1288.67,401.89,1295.78z"/>
	<path class="st3" d="M627.5,1543.5c0,0-139-8-100,59s121-11,146-9s48-17,48-17s10-14-17-33c11-10,32-34-31-53
		C563.5,1490.5,627.5,1543.5,627.5,1543.5z"/>
	<path class="st4" d="M653.88,1435.5c0,0-9.85,30.25-11.58,55.38c-1.1,15.99,1.09,29.9,11.2,32.62c10.7,2.88,23.51,7.95,32-7
		c3-25,18.06-67.46,18.78-81C705.5,1412.5,653.88,1435.5,653.88,1435.5z"/>
	<path class="st3" d="M862.5,1537.5c0,0,52-25-53-47c-79,8-27,56-27,56s-56,30,38,50c48,13,57,33,91,42c29.93,7.92,110-36,17-90
		C913.42,1542.63,885.63,1543.01,862.5,1537.5z"/>
	<path class="st4" d="M764.76,1435.5c0,0,26.74,39,28.74,80s48,11,48,11s-1-69-29-101C792.5,1425.5,764.76,1435.5,764.76,1435.5z"/>
	<polygon class="st5" points="962,1435 506,1435 734,1246 	"/>
	<polygon class="st5" points="736.5,1366 506,1118 967,1119 	"/>
	<g>
		<g>
			<path d="M839.64,1551.7c6.93-2.58,13.59-5.81,19.88-9.69c1.64-1.01,0.14-3.61-1.51-2.59c-6.07,3.75-12.48,6.9-19.17,9.39
				C837.05,1549.48,837.82,1552.38,839.64,1551.7L839.64,1551.7z"/>
		</g>
	</g>
</g>
<g id="mouth">
	<path class="st6" d="M699.5,1373.5c0,0,19,17,37,17s91-21,40-17S699.5,1373.5,699.5,1373.5z"/>
</g>
<g id="handsWithBoard">
	<path class="st7" d="M370.52,1328.78l7.98,61.72l28.96-4.84l-12-77.35c0,0,7.04,20.19,11.04,20.19s7-51,7-51L370.52,1328.78z"/>
	<path class="st3" d="M393.5,1245.5c0,0,17,42-6,67s-33,31-54,0s-16-41-9-57s-10.9-79.12,75.05-50.56
		C399.5,1218.5,393.5,1245.5,393.5,1245.5z"/>
	<path class="st3" d="M422.83,1250.38c18.83-27.45-25.12-101.36-76.4-10.56c-14.71,30.67,22.04,32.6,32.75,4.93
		c-2.36,11.95,1.24,26,10.16,27.8c10.46,2.12-7.33,14.79-7.33,14.79v25.34c0,0,10.55,0.59,16.29-6.63
		c1.14-10.42,4.01-17.38,3.59-10.27c-0.26,4.52-1.65,7.83-3.59,10.27c-1.75,15.89,0.5,39.82,24.53,34.08
		c39.77-9.5-15.7-12.67,2.09-49.63c17.79-22.17,34.54-3.16,34.54-3.16S469.92,1250.38,422.83,1250.38z M379.19,1244.72
		c0.41-2.07,1-4.08,1.77-5.95C380.5,1240.89,379.9,1242.87,379.19,1244.72z"/>
	<path class="st4" d="M459.5,1290.5c0,0,23,50.44,36-37.78s37,66.78,9,88.78s-68.81-11.4-68.81-11.4s-20.19-7.6-10.19-36.6
		S459.5,1290.5,459.5,1290.5z"/>
	<path class="st3" d="M348.5,1226.5l9,11c0,0-10.08,35.11,15.46,31.56c-14.46,4.44-41.46-1.56-39.46-3.56s45,12,45,12s23,30-33,21
		c38,2,57,16,13,29S304.5,1250.5,348.5,1226.5z"/>
	<polygon class="st7" points="339.53,1104.17 357.5,1237.5 383.5,1211.5 372.73,1098.87 	"/>
	
		<rect x="49.82" y="831.57" transform="matrix(0.9875 -0.1577 0.1577 0.9875 -148.4425 64.6369)" class="st3" width="566.36" height="271.92"/>
	<text transform="matrix(0.9904 -0.1384 0.1384 0.9904 105.8037 1025.41)" class="st8 st9 st10">PLS EMAIL ME</text>
	<g>
		<g>
			<path d="M420.76,1250.11c-0.6,5.44-2.41,10.71-5.18,15.42c-0.98,1.67,1.61,3.18,2.59,1.51c3.06-5.19,4.93-10.95,5.59-16.93
				c0.09-0.81-0.75-1.5-1.5-1.5C421.37,1248.61,420.85,1249.3,420.76,1250.11L420.76,1250.11z"/>
		</g>
	</g>
	<g>
		<g>
			<path d="M703.44,1541.3c-3.54,4.77-9.45,7.53-15.36,7.39c-1.93-0.05-1.93,2.95,0,3c7.04,0.17,13.77-3.25,17.95-8.88
				c0.48-0.65,0.11-1.68-0.54-2.05C704.73,1540.31,703.93,1540.64,703.44,1541.3L703.44,1541.3z"/>
		</g>
	</g>
</g>
<g id="right-hands">
	<path class="st4" d="M954.5,1295.5c0,0,30,28,21,55s41,18,41,18s30-70-62-122C934.5,1256.5,954.5,1295.5,954.5,1295.5z"/>
	<path class="st3" d="M1003.5,1333.5c0,0,58,2,32,46c7-10,7-10,7-10s16,23,19,43c19,14,41,39,13,44c-6,15,12,34-35,25
		c-5.41,0.98-21.34,18.47-36,3c-8-49-29-65-29-65s-23,38-43,27s-13-23,6-40s1-12,20-37S953.5,1333.5,1003.5,1333.5z"/>
	<g>
		<g>
			<path d="M1036.75,1422.03c11.6,10.29,20.82,23.04,26.97,37.28c0.76,1.77,3.35,0.24,2.59-1.51
				c-6.24-14.44-15.67-27.44-27.44-37.89C1037.43,1418.63,1035.3,1420.75,1036.75,1422.03L1036.75,1422.03z"/>
		</g>
	</g>
	<g>
		<g>
			<path d="M1011.68,1431.36c9.12,14.18,15.84,29.77,19.89,46.13c0.46,1.87,3.36,1.08,2.89-0.8c-4.11-16.59-10.95-32.47-20.19-46.84
				C1013.23,1428.22,1010.63,1429.72,1011.68,1431.36L1011.68,1431.36z"/>
		</g>
	</g>
</g>
<g id="right-eyes">
	<path class="st11" d="M824.71,1265.8c-41.84-7.98-36.47-8.98-74.02,0c-28.96-81.81,33.26-84.8,33.26-84.8
		S851.53,1189.98,824.71,1265.8z"/>
	<path class="st12" d="M742.46,1231.11c0,0,19.96,22.69,40.96,20.69s32.73-11.39,40.87-27.2s-22.87-53.8-43.87-45.8
		S742.5,1195.41,742.46,1231.11z"/>
	<path class="st13" d="M754.92,1196.3c0,0-3.22,37.38,27.78,39.38s38.5-32.06,38.5-32.06S794.14,1154.92,754.92,1196.3z"/>
</g>
<g id="left-eyes">
	<path class="st11" d="M719.05,1266c-39.54-8-34.47-9-69.95,0c-27.37-82,31.43-85,31.43-85S744.4,1190,719.05,1266z"/>
	<path class="st12" d="M642.04,1233.31c0,0,19.96,22.69,40.96,20.69s32.73-11.39,40.87-27.2S701,1173,680,1181
		S642.08,1197.61,642.04,1233.31z"/>
	<path class="st13" d="M650.22,1197.62c0,0-3.22,37.38,27.78,39.38s38.5-32.06,38.5-32.06S689.45,1156.24,650.22,1197.62z"/>
</g>
<g id="right-purple">
	<circle class="st14" cx="798" cy="1203" r="10"/>
</g>
<g id="left-purple">
	<circle class="st15" cx="694" cy="1203" r="10"/>
</g>
</svg>
