<?xml version="1.0" encoding="utf-8"?>
<!-- Generator: Adobe Illustrator 24.2.3, SVG Export Plug-In . SVG Version: 6.00 Build 0)  -->
<svg version="1.1" xmlns="http://www.w3.org/2000/svg" xmlns:xlink="http://www.w3.org/1999/xlink" x="0px" y="0px"
	 viewBox="0 0 1920 1080" style="enable-background:new 0 0 1920 1080;" xml:space="preserve">
<style type="text/css">
	.st0{fill:url(#SVGID_1_);}
	.st1{fill:#ED1C24;}
	.st2{opacity:0.12;fill:#FF7BAC;}
	.st3{fill:#CCCCCC;}
	.st4{fill:#FF1D25;}
	.st5{fill:#B3B3B3;}
	.st6{opacity:0.28;fill:#666666;}
	.st7{opacity:0.27;fill:none;stroke:#333333;stroke-width:3;stroke-miterlimit:10;}
	.st8{fill:#999999;}
	.st9{fill:#29ABE2;}
	.st10{fill:#FF477E;}
	.st11{fill:#E6E6E6;}
	.st12{opacity:0.32;fill:none;stroke:#4D4D4D;stroke-width:3;stroke-miterlimit:10;}
	.st13{opacity:0.31;fill:#FF7BAC;}
	.st14{opacity:0.25;fill:#FF7BAC;}
	.st15{opacity:0.18;fill:#FF7BAC;}
	.st16{opacity:0.46;fill:#F2F2F2;}
	.st17{fill:#FFEA2A;}
	.st18{fill:#FBFF0A;}
	.st19{opacity:0.19;fill:#4A4000;}
	.st20{fill:none;}
	.st21{opacity:0.26;fill:#C5D400;}
	.st22{fill:#E9FF1F;}
	.st23{opacity:0.39;fill:#4A4000;}
	.st24{opacity:0.36;fill:#7F7D00;}
	.st25{fill:#DFD500;}
	.st26{fill:#F4FF0A;}
	.st27{fill:#F4F000;}
	.st28{opacity:0.44;fill:#AA9900;}
	.st29{opacity:0.36;fill:#FFFD74;}
	.st30{fill:#E9D200;}
	.st31{fill:#FFF400;}
	.st32{fill:#C9C700;}
	.st33{fill:#FFFB1F;}
	.st34{fill:#DFDB00;}
	.st35{fill:#F4FF00;}
	.st36{fill:#C9B500;}
	.st37{opacity:0.31;fill:#FFFBAA;}
</style>
<g id="fire">
	<radialGradient id="SVGID_1_" cx="330.6836" cy="812.6508" r="122.4935" gradientUnits="userSpaceOnUse">
		<stop  offset="0" style="stop-color:#FFFFFF"/>
		<stop  offset="0.0851" style="stop-color:#FFEDD8"/>
		<stop  offset="0.2082" style="stop-color:#FFD5A7"/>
		<stop  offset="0.3345" style="stop-color:#FFC17D"/>
		<stop  offset="0.462" style="stop-color:#FFB05B"/>
		<stop  offset="0.591" style="stop-color:#FFA340"/>
		<stop  offset="0.7222" style="stop-color:#FF9A2D"/>
		<stop  offset="0.8568" style="stop-color:#FF9522"/>
		<stop  offset="1" style="stop-color:#FF931E"/>
	</radialGradient>
	<path class="st0" d="M369.16,693.52l86.21,74.81c0,0-15.67,54.86-78.37,90.48c16.39-22.09,15.67-29.92,15.67-29.92
		s-33.49,45.6-70.53,58.42c22.09-22.8,23.51-32.77,23.51-32.77s-19.95,22.09-42.75,38.47c-22.8,16.39-77.66,22.09-96.9,39.9
		c16.39-34.2,54.15-141.07,80.51-163.16c26.36-22.09-19.24,10.69-19.24,10.69S335.67,680.7,369.16,693.52z"/>
</g>
<g id="space">
	<g id="Layer_45">
		<path class="st1" d="M495.69,751.48c-12.28,18.98-33.19,23.02-33.19,23.02s29.68-49.9,10.94-73.23
			c16.01-7.28,32.4-19.29,32.4-19.29S513.12,720.09,495.69,751.48z"/>
	</g>
	<g id="Layer_44">
		<path class="st1" d="M563.66,769.76c-31.35,29.92-91.2,38.47-91.2,38.47s74.81-78.37,14.96-111.15
			c44.89-12.82,89.77-32.77,89.77-32.77S607.12,720.6,563.66,769.76z"/>
	</g>
	<g id="Layer_43">
		<path class="st2" d="M546.24,766.09c-19.85,26.56-57.74,34.15-57.74,34.15s47.37-69.56,9.47-98.64
			c28.42-11.38,56.84-29.09,56.84-29.09S573.76,722.46,546.24,766.09z"/>
	</g>
	<g id="Layer_41">
		<path class="st3" d="M604.27,657.9c87.63-57.71,125.88-137.07,93.1-182.08s-110.2-62.3-192.84,36.73
			C369.16,716.32,440.4,754.8,604.27,657.9z"/>
	</g>
	<g id="Layer_40">
		<path class="st4" d="M712.57,435.61c0,0,12.11,52.01-6.41,110.43c-44.4,33.6-150.56-72.56-106.16-106.16
			C676.94,423.5,703.31,423.5,712.57,435.61z"/>
	</g>
	<g id="Layer_39">
		<path class="st5" d="M464.63,769.76c-29.92,0-88.35-55.57-95.47-76.23c24.94-20.66,66.26-29.21,66.26-29.21l52.01,38.47
			C487.43,702.79,486,742.69,464.63,769.76z"/>
	</g>
	<g id="Layer_38">
		<polygon class="st6" points="460,764.42 382,696.43 387.44,689.65 467.73,745.95 		"/>
	</g>
	<g id="Layer_37">
		<polygon class="st6" points="467.83,745.89 400.46,687.44 404.88,681.92 473.92,730.7 		"/>
	</g>
	<g id="Layer_36">
		<path class="st7" d="M515.93,570.27c0,0-24.94,26.36-28.5,34.91c-14.96,2.14-26.36,7.12-40.61,11.4
			c7.12-16.39,44.17-83.36,44.17-83.36S500.25,555.31,515.93,570.27z"/>
	</g>
	<g id="Layer_35">
		<path class="st1" d="M439.69,635.81c-58.42-30.64-117.56,37.05-117.56,37.05s17.1-66.26,48.45-98.32
			c34.2-42.04,116.85-14.25,116.85-14.25S472.47,595.2,439.69,635.81z"/>
	</g>
	<g id="Layer_34">
		<path class="st1" d="M354.2,720.6c0,0,64.83-61.99,113.28-37.05c34.2-24.22,48.45-65.55,48.45-65.55s-38.47-38.47-111.15,32.77
			C381.27,665.74,354.2,720.6,354.2,720.6z"/>
	</g>
	<g id="Layer_33">
		<circle class="st8" cx="571.5" cy="554.59" r="50.59"/>
	</g>
	<g id="Layer_32">
		<circle class="st9" cx="571.5" cy="553.88" r="37.05"/>
	</g>
	<g id="Layer_31">
		<circle class="st10" cx="605.7" cy="462.68" r="6.41"/>
	</g>
	<g id="Layer_30">
		<circle class="st10" cx="612.82" cy="486.2" r="6.41"/>
	</g>
	<g id="Layer_29">
		<circle class="st10" cx="629.92" cy="510.42" r="6.41"/>
	</g>
	<g id="Layer_28">
		<circle class="st10" cx="653.43" cy="528.94" r="6.41"/>
	</g>
	<g id="Layer_27">
		<circle class="st10" cx="679.44" cy="541.41" r="5.34"/>
	</g>
	<g id="Layer_26">
		<circle class="st10" cx="698.68" cy="537.85" r="4.63"/>
	</g>
	<g id="Layer_25">
		<circle class="st11" cx="559.39" cy="511.84" r="3.56"/>
	</g>
	<g id="Layer_24">
		<circle class="st11" cx="535.16" cy="530.37" r="3.56"/>
	</g>
	<g id="Layer_23">
		<circle class="st11" cx="528.75" cy="563.14" r="3.56"/>
	</g>
	<g id="Layer_22">
		<circle class="st11" cx="543" cy="587.37" r="3.56"/>
	</g>
	<g id="Layer_21">
		<circle class="st3" cx="580.05" cy="596.63" r="3.56"/>
	</g>
	<g id="Layer_20">
		<circle class="st11" cx="612.11" cy="570.27" r="3.56"/>
	</g>
	<g id="Layer_19">
		<circle class="st11" cx="612.11" cy="537.49" r="3.56"/>
	</g>
	<g id="Layer_18">
		<circle class="st11" cx="592.16" cy="515.41" r="3.56"/>
	</g>
	<g id="Layer_17">
		<path class="st12" d="M665.55,551.03c0,0-18.52,42.04-57,71.96c10.69,8.55,25.34,13.09,25.34,13.09s65.14-56.55,66.48-83.55
			C687.63,553.88,665.55,551.03,665.55,551.03z"/>
	</g>
	<g id="Layer_16">
		<circle class="st11" cx="490.28" cy="546.76" r="2.85"/>
	</g>
	<g id="Layer_15">
		<circle class="st11" cx="497.4" cy="558.16" r="3.56"/>
	</g>
	<g id="Layer_14">
		<circle class="st11" cx="506.66" cy="570.27" r="3.56"/>
	</g>
	<g id="Layer_13">
		<circle class="st11" cx="664.83" cy="565.99" r="3.56"/>
	</g>
	<g id="Layer_12">
		<circle class="st11" cx="656.28" cy="581.67" r="3.56"/>
	</g>
	<g id="Layer_11">
		<circle class="st11" cx="645.6" cy="596.63" r="3.56"/>
	</g>
	<g id="Layer_10">
		<circle class="st11" cx="632.06" cy="611.59" r="3.56"/>
	</g>
	<g id="Layer_9">
		<circle class="st11" cx="621.37" cy="620.85" r="3.56"/>
	</g>
	<g id="Layer_8">
		<circle class="st11" cx="629.92" cy="626.55" r="2.85"/>
	</g>
	<g id="Layer_7">
		<circle class="st11" cx="497.4" cy="583.8" r="2.85"/>
	</g>
	<g id="Layer_6">
		<path class="st13" d="M700.46,433.47c-6.41,2.14-41.68-6.41-76.95,22.8c-28.5-11.4,12.11-20.66,25.65-22.8
			C669.46,429.2,700.46,428.95,700.46,433.47z"/>
	</g>
	<g id="Layer_5">
		<path class="st14" d="M455.01,561.67c-3.93-6.6-50.37-7.98-85.39,22.56c-12.15,8.33-38.58,70.82-38.58,70.82
			S362.48,571.74,455.01,561.67z"/>
	</g>
	<g id="Layer_4">
		<path class="st15" d="M481.73,620.85c-1.42-14.25-19.24-5.7-44.89,8.55c-28.5,20.66-59.14,62.7-59.14,62.7
			S429.72,635.81,481.73,620.85z"/>
	</g>
	<g id="Layer_3">
		<path class="st16" d="M583.61,642.23c-8.55,25.65-76.23,49.87-76.23,49.87s64.12-18.52,84.78-34.91S595.01,627.98,583.61,642.23z"
			/>
	</g>
</g>
<g id="moon">
	<circle class="st17" cx="1325" cy="204" r="172"/>
	<circle class="st18" cx="1240" cy="144" r="23"/>
	<circle class="st19" cx="1292" cy="256" r="33"/>
	<circle class="st20" cx="1364" cy="88" r="23"/>
	<circle class="st21" cx="1412" cy="195" r="17"/>
	<circle class="st22" cx="1390" cy="290" r="25"/>
	<circle class="st23" cx="1341" cy="204" r="19"/>
	<circle class="st24" cx="1190" cy="237" r="25"/>
	<circle class="st25" cx="1461.5" cy="152.5" r="14.5"/>
	<circle class="st26" cx="1290" cy="258" r="28"/>
	<circle class="st27" cx="1343" cy="204" r="16"/>
	<circle class="st28" cx="1392" cy="288" r="20"/>
	<circle class="st29" cx="1240" cy="144" r="21"/>
	<circle class="st30" cx="1365" cy="88" r="20"/>
	<circle class="st31" cx="1405" cy="115" r="15"/>
	<circle class="st32" cx="1404.5" cy="113.5" r="12.5"/>
	<circle class="st33" cx="1188" cy="238" r="21"/>
	<circle class="st34" cx="1412" cy="193" r="13"/>
	<circle class="st35" cx="1281" cy="65" r="14"/>
	<circle class="st36" cx="1279.5" cy="66.5" r="12.5"/>
	<path class="st37" d="M1487,262c-11,37-68.01,116-163,116s-130-63-163-122c50,52,81.83,88.83,161,89
		C1405.7,345.18,1487,213.18,1487,262z"/>
</g>
</svg>
